<svg width="900" height="280" viewBox="0 0 900 280" fill="none" xmlns="http://www.w3.org/2000/svg">
<rect width="900" height="280" fill="#0D0F12"/>
<path d="M136 183.6V117.6H148.48V130.2H151.6L147.64 138C147.64 130.88 149.2 125.52 152.32 121.92C155.44 118.24 160.08 116.4 166.24 116.4C173.28 116.4 178.84 118.6 182.92 123C187.08 127.32 189.16 133.28 189.16 140.88V145.32H175.84V141.96C175.84 137.24 174.64 133.64 172.24 131.16C169.92 128.6 166.64 127.32 162.4 127.32C158.16 127.32 154.84 128.6 152.44 131.16C150.12 133.72 148.96 137.32 148.96 141.96V183.6H136Z" fill="white"/>
<path d="M231.713 184.68C226.273 184.68 221.553 183.64 217.553 181.56C213.553 179.48 210.473 176.52 208.313 172.68C206.153 168.84 205.073 164.32 205.073 159.12V142.08C205.073 136.8 206.153 132.28 208.313 128.52C210.473 124.68 213.553 121.72 217.553 119.64C221.553 117.56 226.273 116.52 231.713 116.52C237.153 116.52 241.873 117.56 245.873 119.64C249.873 121.72 252.953 124.68 255.113 128.52C257.273 132.28 258.353 136.8 258.353 142.08V159.12C258.353 164.32 257.273 168.84 255.113 172.68C252.953 176.52 249.873 179.48 245.873 181.56C241.873 183.64 237.153 184.68 231.713 184.68ZM231.713 173.28C236.113 173.28 239.513 172.08 241.913 169.68C244.313 167.2 245.513 163.68 245.513 159.12V142.08C245.513 137.44 244.313 133.92 241.913 131.52C239.513 129.12 236.113 127.92 231.713 127.92C227.393 127.92 223.993 129.12 221.513 131.52C219.113 133.92 217.913 137.44 217.913 142.08V159.12C217.913 163.68 219.113 167.2 221.513 169.68C223.993 172.08 227.393 173.28 231.713 173.28Z" fill="white"/>
<path d="M303.666 184.68C298.226 184.68 293.506 183.64 289.506 181.56C285.506 179.48 282.426 176.52 280.266 172.68C278.106 168.84 277.026 164.32 277.026 159.12V142.08C277.026 136.8 278.106 132.28 280.266 128.52C282.426 124.68 285.506 121.72 289.506 119.64C293.506 117.56 298.226 116.52 303.666 116.52C309.106 116.52 313.826 117.56 317.826 119.64C321.826 121.72 324.906 124.68 327.066 128.52C329.226 132.28 330.306 136.8 330.306 142.08V159.12C330.306 164.32 329.226 168.84 327.066 172.68C324.906 176.52 321.826 179.48 317.826 181.56C313.826 183.64 309.106 184.68 303.666 184.68ZM303.666 173.28C308.066 173.28 311.466 172.08 313.866 169.68C316.266 167.2 317.466 163.68 317.466 159.12V142.08C317.466 137.44 316.266 133.92 313.866 131.52C311.466 129.12 308.066 127.92 303.666 127.92C299.346 127.92 295.946 129.12 293.466 131.52C291.066 133.92 289.866 137.44 289.866 142.08V159.12C289.866 163.68 291.066 167.2 293.466 169.68C295.946 172.08 299.346 173.28 303.666 173.28Z" fill="white"/>
<path d="M382.819 183.6C376.819 183.6 372.139 181.96 368.779 178.68C365.419 175.4 363.739 170.84 363.739 165V129.36H345.499V117.6H363.739V99H376.699V117.6H402.499V129.36H376.699V165C376.699 169.56 378.899 171.84 383.299 171.84H401.299V183.6H382.819Z" fill="white"/>
<path d="M495.84 183.6V117.6H508.68V130.2H511.8L508.68 133.2C508.68 127.92 510.24 123.8 513.36 120.84C516.48 117.88 520.8 116.4 526.32 116.4C532.88 116.4 538.12 118.52 542.04 122.76C545.96 126.92 547.92 132.56 547.92 139.68V183.6H534.96V141.12C534.96 136.8 533.8 133.48 531.48 131.16C529.16 128.84 526 127.68 522 127.68C517.92 127.68 514.68 128.92 512.28 131.4C509.96 133.8 508.8 137.32 508.8 141.96V183.6H495.84Z" fill="white"/>
<path d="M593.713 184.68C588.273 184.68 583.553 183.64 579.553 181.56C575.553 179.48 572.473 176.52 570.313 172.68C568.153 168.84 567.073 164.32 567.073 159.12V142.08C567.073 136.8 568.153 132.28 570.313 128.52C572.473 124.68 575.553 121.72 579.553 119.64C583.553 117.56 588.273 116.52 593.713 116.52C599.153 116.52 603.873 117.56 607.873 119.64C611.873 121.72 614.953 124.68 617.113 128.52C619.273 132.28 620.353 136.8 620.353 142.08V159.12C620.353 164.32 619.273 168.84 617.113 172.68C614.953 176.52 611.873 179.48 607.873 181.56C603.873 183.64 599.153 184.68 593.713 184.68ZM593.713 173.28C598.113 173.28 601.513 172.08 603.913 169.68C606.313 167.2 607.513 163.68 607.513 159.12V142.08C607.513 137.44 606.313 133.92 603.913 131.52C601.513 129.12 598.113 127.92 593.713 127.92C589.393 127.92 585.993 129.12 583.513 131.52C581.113 133.92 579.913 137.44 579.913 142.08V159.12C579.913 163.68 581.113 167.2 583.513 169.68C585.993 172.08 589.393 173.28 593.713 173.28Z" fill="white"/>
<path d="M660.986 184.8C654.346 184.8 649.026 182.56 645.026 178.08C641.026 173.6 639.026 167.56 639.026 159.96V141.36C639.026 133.68 641.026 127.6 645.026 123.12C649.026 118.64 654.346 116.4 660.986 116.4C666.426 116.4 670.746 117.92 673.946 120.96C677.146 123.92 678.746 128 678.746 133.2L675.986 130.2H678.986L678.626 114.84V96H691.586V183.6H678.746V171H675.986L678.746 168C678.746 173.2 677.146 177.32 673.946 180.36C670.746 183.32 666.426 184.8 660.986 184.8ZM665.426 173.52C669.506 173.52 672.706 172.28 675.026 169.8C677.426 167.24 678.626 163.72 678.626 159.24V141.96C678.626 137.48 677.426 134 675.026 131.52C672.706 128.96 669.506 127.68 665.426 127.68C661.186 127.68 657.866 128.92 655.466 131.4C653.066 133.8 651.866 137.32 651.866 141.96V159.24C651.866 163.88 653.066 167.44 655.466 169.92C657.866 172.32 661.186 173.52 665.426 173.52Z" fill="white"/>
<path d="M737.619 184.8C732.259 184.8 727.539 183.76 723.459 181.68C719.459 179.52 716.379 176.52 714.219 172.68C712.059 168.84 710.979 164.36 710.979 159.24V141.96C710.979 136.76 712.059 132.28 714.219 128.52C716.379 124.68 719.459 121.72 723.459 119.64C727.539 117.48 732.259 116.4 737.619 116.4C743.059 116.4 747.779 117.48 751.779 119.64C755.779 121.72 758.859 124.68 761.019 128.52C763.179 132.28 764.259 136.76 764.259 141.96V153.72H723.459V159.24C723.459 164.12 724.659 167.84 727.059 170.4C729.539 172.96 733.099 174.24 737.739 174.24C741.499 174.24 744.539 173.6 746.859 172.32C749.179 170.96 750.619 169 751.179 166.44H764.019C763.059 172.04 760.179 176.52 755.379 179.88C750.579 183.16 744.659 184.8 737.619 184.8ZM751.779 145.92V141.84C751.779 137.04 750.579 133.32 748.179 130.68C745.779 128.04 742.259 126.72 737.619 126.72C733.059 126.72 729.539 128.04 727.059 130.68C724.659 133.32 723.459 137.08 723.459 141.96V144.96L752.739 144.84L751.779 145.92Z" fill="white"/>
<circle cx="448.76" cy="169.6" r="14" fill="#CC8A0A"/>
</svg>
